<svg enable-background="new 0 0 128 128" viewBox="0 0 128 128" xmlns="http://www.w3.org/2000/svg" xmlns:xlink="http://www.w3.org/1999/xlink"><radialGradient id="a" cx="63.6" cy="62.9" gradientUnits="userSpaceOnUse" r="56.9597"><stop offset=".5" stop-color="#fde030"/><stop offset=".92" stop-color="#f7c02b"/><stop offset="1" stop-color="#f4a223"/></radialGradient><path d="m63.6 118.8c-27.9 0-58-17.5-58-55.9s30.1-55.9 58-55.9c15.5 0 29.8 5.1 40.4 14.4 11.5 10.2 17.6 24.6 17.6 41.5s-6.1 31.2-17.6 41.4c-10.6 9.3-25 14.5-40.4 14.5z" fill="url(#a)"/><path d="m111.49 29.67c5.33 8.6 8.11 18.84 8.11 30.23 0 16.9-6.1 31.2-17.6 41.4-10.6 9.3-25 14.5-40.4 14.5-18.06 0-37-7.35-48.18-22.94 10.76 17.66 31 25.94 50.18 25.94 15.4 0 29.8-5.2 40.4-14.5 11.5-10.2 17.6-24.5 17.6-41.4 0-12.74-3.47-24.06-10.11-33.23z" fill="#eb8f00"/><path d="m74.3 24.5c.89-.79 1.82-1.52 2.8-2.2 1-.7 2.1-1.2 3.1-1.8 2.33-1.2 4.88-1.92 7.5-2.1.73-.01 1.47.02 2.2.1.75.07 1.49.24 2.2.5.2.1.4.1.5.2l.5.3 1 .5c.62.44 1.22.9 1.8 1.4 1.01 1.01 1.82 2.19 2.4 3.5.28.58.51 1.18.7 1.8.2.6.3 1.2.4 1.6l.1.3c.21 1.21-.59 2.37-1.8 2.6-.95.18-1.91-.26-2.4-1.1-.3-.6-.6-1.1-.8-1.5s-.5-.8-.7-1.2c-.49-.67-1.06-1.27-1.7-1.8-.15-.12-.32-.22-.5-.3-.15-.07-.29-.18-.4-.3-.2-.1-.3-.1-.5-.2l-.2-.1h-.3c-.71-.22-1.46-.29-2.2-.2-1.86.13-3.68.57-5.4 1.3-.9.4-1.9.8-2.8 1.2-.94.49-1.91.93-2.9 1.3l-.2.1c-1.1.48-2.38-.01-2.86-1.11-.01-.03-.03-.06-.04-.09-.47-.91-.26-2.02.5-2.7z" fill="#422b0d"/><path d="m45.6 38.5c-.65.19-1.32.29-2 .3-.63.05-1.27.05-1.9 0-1.29 0-2.57-.2-3.8-.6-1.86-.49-3.78-.76-5.7-.8-.74-.01-1.49.09-2.2.3-.61.2-1.16.54-1.6 1-1.18 1.41-2.19 2.95-3 4.6-.61 1.1-1.99 1.5-3.1.9-.84-.49-1.32-1.43-1.2-2.4.22-1.19.52-2.36.9-3.5.47-1.3 1.15-2.51 2-3.6.99-1.23 2.31-2.17 3.8-2.7 1.39-.47 2.84-.7 4.3-.7 2.47.14 4.9.68 7.2 1.6.89.31 1.79.58 2.7.8.46.12.93.18 1.4.2.4 0 1 .1 1.3.1h.4c1.19.03 2.13 1.02 2.1 2.21v.09c.16 1.05-.56 2.03-1.6 2.2z" fill="#422b0d"/><path d="m44 91.3c1.8-2 6.6-4.3 13.3-4.2 8.9.2 13.7 4.2 13.7 4.2 2.9 2.4 1.6 6.1-1.5 5.8-5-.6-4.7-1.5-13.7-1.7-3.32-.12-6.65.18-9.9.9-1.8.1-2.5-.6-2.8-1.8-.29-1.15.05-2.37.9-3.2z" fill="#422b0d"/><path d="m82.3 43.8c4.4 0 8.4 3.7 8.4 9.9s-4 9.9-8.4 9.9-8.4-3.7-8.4-9.9 4-9.9 8.4-9.9z" fill="#422b0d"/><path d="m37.2 45.5c-4.2 0-8 3.5-8 9.4s3.8 9.4 8 9.4 8-3.5 8-9.4-3.8-9.4-8-9.4z" fill="#422b0d"/><g fill="#404040"><path d="m106.5 49.9h-5.6v9h5.6c2.7 0 5.4-1.7 5.4-4.3v-.4c0-2.7-2.7-4.3-5.4-4.3zm-.5 7.7c-1.82-.06-3.25-1.58-3.2-3.4.06-1.82 1.58-3.25 3.4-3.2 1.78.05 3.2 1.51 3.2 3.3-.03 1.85-1.55 3.33-3.4 3.3z"/><path d="m106.1 70.8c-.3.02-.57-.2-.6-.5v-4.6c-.02-.26.18-.48.44-.5h.06.1c.26-.02.48.18.5.44v.06 4.6c-.02.27-.23.48-.5.5z"/><path d="m106.1 78.4c-.3.02-.57-.2-.6-.5v-4.6c-.02-.26.18-.48.44-.5h.06.1c.26-.02.48.18.5.44v.06 4.6c.02.26-.18.48-.44.5-.02 0-.04 0-.06 0z"/><path d="m106.1 86.1c-.3.02-.57-.2-.6-.5v-4.6c-.02-.26.18-.48.44-.5h.06.1c.26-.02.48.18.5.44v.06 4.6c.02.26-.18.48-.44.5-.02 0-.04 0-.06 0z"/><path d="m106.1 93.8c-.3.02-.57-.2-.6-.5v-4.6c-.02-.26.18-.48.44-.5h.06.1c.26-.02.48.18.5.44v.06 4.6c.02.26-.18.48-.44.5-.02 0-.04 0-.06 0z"/><path d="m106.1 101.5c-.3.02-.57-.2-.6-.5v-4.6c-.02-.26.18-.48.44-.5h.06.1c.26-.02.48.18.5.44v.06 4.6c.02.26-.18.48-.44.5-.02 0-.04 0-.06 0z"/><path d="m106.1 109.2c-.3.02-.57-.2-.6-.5v-4.6c-.02-.26.18-.48.44-.5h.06.1c.26-.02.48.18.5.44v.06 4.6c.02.26-.18.48-.44.5-.02 0-.04 0-.06 0z"/><path d="m106.1 116.9c-.3.02-.57-.2-.6-.5v-4.6c-.02-.26.18-.48.44-.5h.06.1c.26-.02.48.18.5.44v.06 4.6c.02.26-.18.48-.44.5-.02 0-.04 0-.06 0z"/><path d="m106.1 62.7c-.3.02-.57-.2-.6-.5v-4.6c-.02-.26.18-.48.44-.5h.06.1c.26-.02.48.18.5.44v.06 4.6c-.02.27-.23.48-.5.5z"/></g><circle cx="106.1" cy="64.1" fill="none" r="2.6" stroke="#404040" stroke-miterlimit="10"/><circle cx="106.1" cy="71.8" fill="none" r="2.6" stroke="#404040" stroke-miterlimit="10"/><circle cx="106.1" cy="79.4" fill="none" r="2.6" stroke="#404040" stroke-miterlimit="10"/><circle cx="106.1" cy="87.1" fill="none" r="2.6" stroke="#404040" stroke-miterlimit="10"/><circle cx="106.1" cy="94.7" fill="none" r="2.6" stroke="#404040" stroke-miterlimit="10"/><circle cx="106.1" cy="102.4" fill="none" r="2.6" stroke="#404040" stroke-miterlimit="10"/><circle cx="106.1" cy="110" fill="none" r="2.6" stroke="#404040" stroke-miterlimit="10"/><circle cx="106.1" cy="117.7" fill="none" r="2.6" stroke="#404040" stroke-miterlimit="10"/><circle cx="79.6" cy="53.7" fill="#ccc" fill-opacity=".5" r="20.6" stroke="#404040" stroke-miterlimit="10" stroke-width="3.5"/><path d="m94.8 52.5c-.34-3.74-2.09-7.21-4.9-9.7-2.79-2.38-6.33-3.69-10-3.7-3.67-.03-7.24 1.2-10.1 3.5-2.86 2.41-4.63 5.87-4.9 9.6 0 .3-.3.5-.5.4-.25-.03-.42-.25-.4-.5-.08-2.06.29-4.11 1.1-6 .82-1.91 2.01-3.64 3.5-5.1 3.11-2.83 7.19-4.37 11.4-4.3 4.21-.01 8.26 1.6 11.3 4.5 1.49 1.46 2.68 3.19 3.5 5.1.78 1.9 1.12 3.95 1 6 .02.26-.18.48-.44.5-.02 0-.04 0-.06 0-.17.08-.38.01-.47-.17-.02-.04-.03-.08-.03-.13z" fill="#fff"/></svg>